# xmcd
#
# Track frame offsets: 
#        150
#        13607
#        26757
#        41245
#        53107
#        63022
#        72232
#        82367
#        95529
#        108395
#        118205
#        133390
#
# Disc length: 1902 seconds
#
# Revision: 0
# Processed by: cddbd v1.5.1PL2 Copyright (c) Steve Scherf et al.
# Submitted via: ExactAudioCopy v0.95b3
#
DISCID=b0076c0c
DTITLE=Various Artist - Golden COuntry
DYEAR=2000
DGENRE=Country
TTITLE0=David Houston - Almost Persuaded
TTITLE1=Kenny Rogers - Ruby Don't Take Your Love to Town
TTITLE2=Lee Greenwood - God Bless the USA
TTITLE3=Jack Greene - All The Time
TTITLE4=Kenny Price - Biloxi
TTITLE5=Johnny Paycheck - Mr. Lovemaker
TTITLE6=Faron Young - Hello Walls
TTITLE7=Bobby Helms - My Special Angel
TTITLE8=Donna Fargo - Don't Be Angry
TTITLE9=Ned Miller - From A Jack To A King
TTITLE10=Lynn Anderson - Desperado
TTITLE11=Willie Nelson - One Stop Beyond
EXTD=
EXTT0=
EXTT1=
EXTT2=
EXTT3=
EXTT4=
EXTT5=
EXTT6=
EXTT7=
EXTT8=
EXTT9=
EXTT10=
EXTT11=
PLAYORDER=
